# xmcd
#
# Track frame offsets:
#	150
#	9227
#	20012
#	41863
#	58281
#	72008
#	89287
#	98466
#	116802
#	128736
#
# Disc length: 1961 seconds
#
# Revision: 1
# Processed by: cddbd v1.5.2PL0 Copyright (c) Steve Scherf et al.
# Submitted via: audiograbber 1.83.01
#
DISCID=7f07a70a
DTITLE=Simple Faith - He Can and He Will
DYEAR=1900
DGENRE=Christian
TTITLE0=Looking for the lights of that city
TTITLE1=Some glad day
TTITLE2=Calvary's Hill
TTITLE3=I've seen him do it
TTITLE4=He Can and He Will
TTITLE5=Meet Him here
TTITLE6=Celebration Day
TTITLE7=I am redeemed
TTITLE8=He's everywhere I go
TTITLE9=Solider on
EXTD=
EXTT0=
EXTT1=
EXTT2=
EXTT3=
EXTT4=
EXTT5=
EXTT6=
EXTT7=
EXTT8=
EXTT9=
PLAYORDER=
